<svg preserveAspectRatio="none" xmlns:xlink="http://www.w3.org/1999/xlink" xmlns="http://www.w3.org/2000/svg" height="296.1271" width="335.2069" viewBox="357.3966 209.7257 335.2069 296.1271"><defs></defs><style>.a6izo4zJpcolor8bc17515-8f0c-481b-bff5-b01961935c53 {fill:#595B83;fill-opacity:1;}.aD6z1nYkhcolor8bc17515-8f0c-481b-bff5-b01961935c53 {fill:#595B83;fill-opacity:1;}.aLgOaV3zRcolors-08bc17515-8f0c-481b-bff5-b01961935c53 {fill:#b6586d;fill-opacity:1;}</style><g transform="rotate(0 427.3225 481.1221)" opacity="1"> <svg viewBox="0 -29.4727 323.1836 40.918" preserveAspectRatio="none" version="1.1" y="481.1221" x="427.3225" height="24.7307" width="195.3552"> <g class="a6izo4zJpcolor8bc17515-8f0c-481b-bff5-b01961935c53" transform="matrix(1 0 0 1 0 0)"><path d="M4.16 1.80L4.16 1.80Q3.22 1.80 2.46 1.53Q1.70 1.27 1.15 0.80Q0.61 0.33 0.30-0.30Q0-0.94 0-1.68L0-1.68Q0-3.38 1.18-4.35Q2.36-5.31 4.43-5.31L4.43-5.31Q5.92-5.31 7.15-4.91Q8.38-4.51 9.43-3.89L9.43-3.89Q9.69-4.92 9.69-6.23L9.69-6.23Q9.69-7.58 9.57-8.88Q9.45-10.18 9.31-11.46Q9.16-12.73 9.04-13.98Q8.93-15.23 8.93-16.48L8.93-16.48Q8.93-19.30 9.47-21.36Q10.02-23.42 10.91-24.86Q11.80-26.31 12.94-27.21Q14.08-28.11 15.27-28.61Q16.46-29.12 17.61-29.30Q18.75-29.47 19.65-29.47L19.65-29.47Q21.00-29.47 22.08-29.02Q23.16-28.57 23.94-27.83Q24.71-27.09 25.12-26.14Q25.53-25.20 25.53-24.20L25.53-24.20Q25.53-23.30 25.31-22.50Q25.10-21.70 24.83-21.08Q24.57-20.47 24.34-20.10Q24.10-19.73 24.08-19.69L24.08-19.69L23.48-20.12Q23.83-20.64 24.12-21.29L24.12-21.29Q24.36-21.84 24.56-22.54Q24.77-23.24 24.77-24.04L24.77-24.04Q24.77-25.02 24.40-25.87Q24.04-26.72 23.39-27.35Q22.73-27.99 21.80-28.35Q20.86-28.71 19.69-28.71L19.69-28.71Q17.64-28.71 16.04-27.86Q14.43-27.01 13.34-25.65Q12.25-24.30 11.68-22.61Q11.11-20.92 11.11-19.24L11.11-19.24Q11.11-18.13 11.21-16.91Q11.31-15.70 11.42-14.42Q11.52-13.14 11.62-11.82Q11.72-10.49 11.72-9.16L11.72-9.16Q11.72-7.38 11.47-5.85Q11.23-4.32 10.72-3.05L10.72-3.05Q11.80-2.25 12.81-1.39Q13.83-0.53 14.89 0.20Q15.96 0.92 17.14 1.38Q18.32 1.84 19.73 1.84L19.73 1.84Q21.54 1.84 23.06 1.06Q24.57 0.29 25.66-0.94Q26.76-2.17 27.36-3.69Q27.97-5.21 27.97-6.72L27.97-6.72Q27.97-7.27 27.81-8.01Q27.66-8.75 27.25-9.36L27.25-9.36L27.71-9.73Q27.73-9.69 27.99-9.37Q28.24-9.04 28.54-8.47Q28.83-7.89 29.07-7.09Q29.32-6.29 29.32-5.27L29.32-5.27Q29.32-3.83 28.79-2.41Q28.26-1.00 27.17 0.13Q26.07 1.25 24.38 1.94Q22.70 2.64 20.39 2.64L20.39 2.64Q18.57 2.64 17.19 2.16Q15.80 1.68 14.66 0.94Q13.52 0.20 12.51-0.68Q11.50-1.56 10.45-2.36L10.45-2.36Q9.51-0.41 7.96 0.69Q6.41 1.80 4.16 1.80ZM4.39 1.04L4.39 1.04Q6.29 1.04 7.51-0.10Q8.73-1.23 9.28-3.16L9.28-3.16Q8.28-3.77 7.13-4.16Q5.98-4.55 4.51-4.55L4.51-4.55Q4.22-4.55 3.72-4.45Q3.22-4.36 2.74-4.06Q2.27-3.77 1.91-3.21Q1.56-2.66 1.56-1.72L1.56-1.72Q1.56-1.09 1.79-0.60Q2.01-0.10 2.39 0.27Q2.77 0.64 3.29 0.84Q3.81 1.04 4.39 1.04Z M45.03-0.27L45.03-0.27Q44.04-0.27 43.12-0.63Q42.20-0.98 41.51-1.69Q40.81-2.40 40.40-3.48Q39.99-4.55 39.99-6.00L39.99-6.00Q39.99-7.75 40.50-9.13Q41.01-10.51 41.80-11.46Q42.59-12.40 43.57-12.90Q44.54-13.40 45.48-13.40L45.48-13.40Q46.69-13.40 47.40-12.60Q48.12-11.80 48.12-10.53L48.12-10.53Q48.12-9.43 47.71-8.54Q47.30-7.66 46.62-7.02Q45.95-6.39 45.08-6.04Q44.21-5.68 43.27-5.68L43.27-5.68Q42.82-5.68 42.42-5.73Q42.02-5.78 41.71-5.84L41.71-5.84Q41.83-4.63 42.18-3.75Q42.53-2.87 43.06-2.30Q43.59-1.74 44.24-1.46Q44.89-1.19 45.60-1.19L45.60-1.19Q46.48-1.19 47.22-1.62Q47.96-2.05 48.59-2.74Q49.21-3.44 49.73-4.34Q50.25-5.23 50.66-6.16Q51.07-7.09 51.39-7.98Q51.71-8.87 51.96-9.55L51.96-9.55L52.73-9.36Q52.47-8.71 52.13-7.79Q51.79-6.88 51.34-5.87Q50.89-4.86 50.29-3.86Q49.68-2.85 48.92-2.06Q48.16-1.27 47.19-0.77Q46.22-0.27 45.03-0.27ZM45.52-12.64L45.52-12.64Q44.80-12.64 44.10-12.18Q43.41-11.72 42.86-10.92Q42.32-10.12 41.97-9.02Q41.63-7.93 41.63-6.68L41.63-6.68Q41.89-6.58 42.35-6.51Q42.80-6.45 43.47-6.45L43.47-6.45Q44.17-6.45 44.87-6.75Q45.56-7.05 46.12-7.59Q46.67-8.13 47.01-8.87Q47.36-9.61 47.36-10.49L47.36-10.49Q47.36-10.92 47.24-11.31Q47.12-11.70 46.89-11.99Q46.65-12.29 46.31-12.46Q45.97-12.64 45.52-12.64Z M55.51-15.72L55.82-16.45Q56.12-16.27 56.53-16.04Q56.94-15.80 57.48-15.59Q58.03-15.37 58.71-15.19Q59.38-15 60.18-14.92L60.18-14.92Q60.45-16.68 60.88-18.10Q61.31-19.51 61.83-20.52Q62.35-21.52 62.90-22.06Q63.46-22.60 63.99-22.60L63.99-22.60Q64.59-22.60 64.85-22.13Q65.10-21.66 65.10-20.88L65.10-20.88Q65.10-20.31 64.98-19.63Q64.87-18.95 64.67-18.17Q64.48-17.40 64.20-16.57Q63.93-15.74 63.64-14.92L63.64-14.92Q65.59-15.10 67.24-15.57Q68.89-16.04 70.10-16.52L70.10-16.52L70.47-15.80Q68.87-15.20 67.15-14.72Q65.43-14.24 63.30-14.12L63.30-14.12Q62.82-12.85 62.30-11.71Q61.78-10.57 61.35-9.73L61.35-9.73Q61.37-8.63 61.48-7.35Q61.59-6.07 61.91-4.96Q62.23-3.85 62.83-3.11Q63.42-2.36 64.40-2.36L64.40-2.36Q65.22-2.36 65.90-3.06Q66.59-3.75 67.16-4.81Q67.74-5.88 68.23-7.15Q68.71-8.42 69.14-9.55L69.14-9.55L69.91-9.36Q69.63-8.65 69.32-7.77Q69.01-6.89 68.62-5.99Q68.23-5.08 67.76-4.23Q67.29-3.38 66.72-2.71Q66.16-2.03 65.47-1.63Q64.79-1.23 63.99-1.23L63.99-1.23Q63.13-1.23 62.38-1.62Q61.63-2.01 61.07-3.02Q60.51-4.02 60.19-5.75Q59.87-7.48 59.87-10.16L59.87-10.16Q59.87-12.30 60.10-14.16L60.10-14.16Q58.42-14.38 57.28-14.83Q56.14-15.29 55.51-15.72L55.51-15.72ZM64.11-21.56L64.11-21.56Q63.93-21.56 63.58-21.21Q63.23-20.86 62.84-20.07Q62.45-19.28 62.08-18.00Q61.72-16.72 61.51-14.84L61.51-14.84L61.88-14.84L62.84-14.84Q63.19-15.82 63.45-16.74Q63.71-17.66 63.91-18.45Q64.11-19.24 64.20-19.87Q64.30-20.51 64.30-20.92L64.30-20.92Q64.30-21.56 64.11-21.56ZM61.35-11.33L61.35-11.29Q61.68-11.97 61.98-12.67Q62.27-13.36 62.54-14.08L62.54-14.08L61.82-14.08L61.43-14.08Q61.39-13.46 61.37-12.76Q61.35-12.07 61.35-11.33L61.35-11.33Z M79.51-26.52L77.98-19.55L77.22-19.55L77.71-26.52L79.51-26.52Z M89.75-11.04L89.75-11.04Q89.54-10.47 89.33-9.92Q89.13-9.38 88.88-8.83Q88.64-8.28 88.31-7.75Q87.98-7.23 87.51-6.68L87.51-6.68L87.35-6.84Q87.86-8.07 88.25-9.36Q88.64-10.64 89.03-12.25L89.03-12.25Q88.93-12.52 88.86-12.71Q88.78-12.91 88.72-13.08Q88.66-13.24 88.62-13.43Q88.58-13.61 88.58-13.85L88.58-13.85Q88.58-14.16 88.67-14.54Q88.76-14.92 88.92-15.25Q89.09-15.59 89.30-15.81Q89.52-16.04 89.75-16.04L89.75-16.04Q90.03-16.04 90.19-15.91Q90.36-15.78 90.46-15.59Q90.55-15.39 90.59-15.18Q90.63-14.96 90.63-14.77L90.63-14.77Q90.63-14.47 90.56-14.09Q90.50-13.71 90.41-13.35Q90.32-12.99 90.25-12.71Q90.18-12.44 90.18-12.36L90.18-12.36Q90.34-11.84 90.72-11.29Q91.10-10.74 91.59-10.18Q92.08-9.61 92.62-8.99Q93.15-8.38 93.59-7.70Q94.03-7.01 94.31-6.24Q94.60-5.47 94.60-4.61L94.60-4.61Q94.60-3.38 94.24-2.62Q93.88-1.86 93.27-1.45L93.27-1.45Q94.15-1.80 94.92-2.70Q95.69-3.59 96.35-4.76Q97-5.92 97.56-7.19Q98.11-8.46 98.54-9.55L98.54-9.55L99.30-9.36Q98.64-7.66 97.90-6.04Q97.16-4.41 96.22-3.14Q95.28-1.88 94.10-1.09Q92.92-0.31 91.39-0.31L91.39-0.31Q90.98-0.31 90.56-0.38Q90.14-0.45 89.74-0.60Q89.34-0.74 88.99-1.00Q88.64-1.25 88.39-1.60L88.39-1.60L89.03-2.03Q89.21-1.76 89.58-1.52Q89.95-1.29 90.55-1.29L90.55-1.29Q91.14-1.29 91.58-1.53Q92.02-1.78 92.32-2.20Q92.63-2.62 92.77-3.18Q92.92-3.75 92.92-4.39L92.92-4.39Q92.92-5.72 92.54-6.68Q92.16-7.64 91.64-8.39Q91.12-9.14 90.58-9.77Q90.05-10.39 89.75-11.04Z M133-2.64L133-2.64Q133.64-2.64 134.22-3.00Q134.80-3.36 135.31-3.96Q135.83-4.55 136.29-5.30Q136.75-6.05 137.13-6.83Q137.51-7.60 137.81-8.31Q138.12-9.02 138.35-9.55L138.35-9.55L139.11-9.36Q138.86-8.71 138.54-7.91Q138.21-7.11 137.79-6.27Q137.38-5.43 136.88-4.64Q136.38-3.85 135.77-3.22Q135.17-2.60 134.46-2.22Q133.76-1.84 132.96-1.84L132.96-1.84Q132.18-1.84 131.40-2.17L131.40-2.17Q130.73-1.66 129.93-1.37Q129.13-1.07 128.16-1.07L128.16-1.07Q127.55-1.07 127.18-1.23Q126.81-1.39 126.60-1.61Q126.40-1.84 126.32-2.07Q126.24-2.30 126.24-2.48L126.24-2.48Q126.24-2.87 126.42-3.17Q126.59-3.48 126.89-3.69Q127.18-3.91 127.56-4.01Q127.94-4.12 128.35-4.12L128.35-4.12Q129.02-4.12 129.62-3.88Q130.23-3.63 130.79-3.36L130.79-3.36Q131.24-3.93 131.59-4.63Q131.95-5.33 132.18-6.08Q132.41-6.84 132.54-7.58Q132.67-8.32 132.67-8.96L132.67-8.96Q132.67-10.47 132.17-11.13Q131.67-11.80 130.99-11.80L130.99-11.80Q130.23-11.80 129.51-11.33Q128.80-10.86 128.07-9.86Q127.34-8.87 126.56-7.33Q125.79-5.80 124.91-3.67L124.91-3.67Q124.82-3.50 124.76-3.30Q124.70-3.11 124.60-2.93L124.60-2.93Q124.78-0.63 124.96 1.49Q125.15 3.61 125.15 5.27L125.15 5.27Q125.15 8.42 124.43 9.93Q123.70 11.45 122.20 11.45L122.20 11.45Q121.61 11.45 121.18 11.17Q120.75 10.90 120.47 10.43Q120.19 9.96 120.05 9.33Q119.91 8.69 119.91 7.97L119.91 7.97Q119.91 6.84 120.20 5.47Q120.48 4.10 120.95 2.63Q121.42 1.15 122.04-0.41Q122.67-1.97 123.35-3.52L123.35-3.52Q123.18-5.47 123.05-7.35Q122.92-9.24 122.92-11.00L122.92-11.00Q122.92-12.52 123.14-13.38Q123.35-14.24 123.80-14.24L123.80-14.24Q123.94-14.24 124.16-14.16Q124.39-14.08 124.58-13.92Q124.78-13.75 124.92-13.52Q125.07-13.28 125.07-12.97L125.07-12.97Q125.07-12.17 124.86-11.33Q124.64-10.49 124.27-9.65L124.27-9.65Q124.27-8.73 124.30-7.77Q124.33-6.82 124.39-5.84L124.39-5.84Q125.25-7.64 126.07-8.92Q126.89-10.20 127.71-11.01Q128.53-11.82 129.34-12.19Q130.15-12.56 130.99-12.56L130.99-12.56Q131.71-12.56 132.30-12.25Q132.88-11.93 133.29-11.40Q133.70-10.86 133.93-10.12Q134.15-9.38 134.15-8.52L134.15-8.52Q134.15-6.93 133.64-5.41Q133.14-3.89 132.12-2.79L132.12-2.79Q132.49-2.64 133-2.64ZM124.04 6.64L124.04 6.64Q124.04 4.92 123.92 3.10Q123.80 1.27 123.64-0.57L123.64-0.57Q122.49 2.23 121.76 4.47Q121.03 6.72 121.03 8.55L121.03 8.55Q121.03 9.43 121.36 10.06Q121.69 10.68 122.36 10.68L122.36 10.68Q122.71 10.68 123.01 10.49Q123.31 10.29 123.54 9.82Q123.76 9.36 123.90 8.57Q124.04 7.79 124.04 6.64ZM128.08-1.84L128.08-1.84Q128.68-1.84 129.21-2.07Q129.74-2.30 130.19-2.71L130.19-2.71Q129.66-2.97 129.20-3.16Q128.74-3.36 128.31-3.36L128.31-3.36Q127.57-3.36 127.29-3.08Q127.00-2.79 127.00-2.52L127.00-2.52Q127.00-2.30 127.26-2.07Q127.51-1.84 128.08-1.84Z M153.11-24.61L153.11-24.61Q153.11-23.38 152.83-21.99Q152.54-20.61 152.08-19.18Q151.63-17.75 151.03-16.31Q150.43-14.86 149.83-13.54Q149.22-12.21 148.64-11.02Q148.05-9.82 147.60-8.89L147.60-8.89Q147.68-7.29 147.88-6.00Q148.07-4.71 148.36-3.80Q148.66-2.89 149.07-2.40Q149.48-1.91 150.00-1.91L150.00-1.91Q150.59-1.91 151.17-2.46Q151.74-3.01 152.33-4.00Q152.91-5 153.52-6.41Q154.13-7.81 154.75-9.55L154.75-9.55L155.51-9.36Q155.04-8.01 154.46-6.51Q153.87-5.02 153.15-3.77Q152.43-2.52 151.58-1.70Q150.73-0.88 149.75-0.88L149.75-0.88Q148.77-0.88 148.11-1.48Q147.45-2.09 147.02-3.08Q146.59-4.06 146.35-5.32Q146.12-6.58 146-7.89Q145.88-9.20 145.86-10.44Q145.84-11.68 145.84-12.64L145.84-12.64Q145.84-14.41 145.99-16.17Q146.14-17.93 146.44-19.53Q146.74-21.13 147.17-22.51Q147.60-23.89 148.18-24.89Q148.75-25.90 149.45-26.46Q150.14-27.03 150.96-27.03L150.96-27.03Q151.55-27.03 151.96-26.84Q152.37-26.64 152.62-26.31Q152.88-25.98 152.99-25.54Q153.11-25.10 153.11-24.61ZM147.48-13.36L147.48-13.36Q147.48-12.62 147.48-11.90Q147.48-11.19 147.52-10.53L147.52-10.53Q148.01-11.50 148.56-12.67Q149.11-13.83 149.64-15.07Q150.18-16.31 150.67-17.58Q151.16-18.85 151.53-20.07Q151.90-21.29 152.12-22.39Q152.35-23.50 152.35-24.39L152.35-24.39Q152.35-24.69 152.30-25.02Q152.25-25.35 152.12-25.63Q152.00-25.92 151.76-26.10Q151.53-26.29 151.16-26.29L151.16-26.29Q150.41-26.29 149.74-25.32Q149.07-24.36 148.57-22.64Q148.07-20.92 147.78-18.54Q147.48-16.17 147.48-13.36Z M177.03-9.55L177.79-9.36Q176.99-7.19 176.33-5.72Q175.68-4.26 175.06-3.36Q174.45-2.46 173.84-2.07Q173.24-1.68 172.52-1.68L172.52-1.68Q171.64-1.68 171.01-2.29Q170.39-2.91 170.23-4.20L170.23-4.20Q169.61-2.85 168.61-2.00Q167.61-1.15 166.11-1.15L166.11-1.15Q165.31-1.15 164.58-1.45Q163.84-1.74 163.28-2.35Q162.71-2.97 162.37-3.91Q162.03-4.84 162.03-6.11L162.03-6.11Q162.03-7.40 162.35-8.54Q162.67-9.67 163.20-10.62Q163.73-11.56 164.42-12.30Q165.11-13.05 165.86-13.55Q166.60-14.06 167.34-14.34Q168.08-14.61 168.71-14.61L168.71-14.61Q169.25-14.61 169.76-14.47Q170.27-14.34 170.67-14.03Q171.07-13.73 171.31-13.22Q171.56-12.71 171.56-11.95L171.56-11.95Q171.56-11.05 171.22-10.39Q170.88-9.73 170.40-9.28Q169.92-8.83 169.42-8.55Q168.92-8.28 168.63-8.16L168.63-8.16L168.39-8.93Q168.45-8.93 168.83-9.08Q169.21-9.24 169.63-9.60Q170.05-9.96 170.41-10.53Q170.76-11.09 170.76-11.91L170.76-11.91Q170.76-12.85 170.23-13.35Q169.70-13.85 168.88-13.85L168.88-13.85Q168.26-13.85 167.42-13.40Q166.58-12.95 165.81-11.99Q165.04-11.04 164.50-9.57Q163.96-8.11 163.96-6.07L163.96-6.07Q163.96-4.06 164.67-3.01Q165.39-1.95 166.60-1.95L166.60-1.95Q167.20-1.95 167.76-2.29Q168.32-2.64 168.79-3.20Q169.25-3.77 169.63-4.52Q170.00-5.27 170.27-6.07L170.27-6.07Q170.27-6.70 170.42-7.55Q170.56-8.40 170.88-9.28L170.88-9.28L172.07-8.89Q171.97-8.63 171.87-8.22Q171.77-7.81 171.69-7.32Q171.60-6.84 171.54-6.32Q171.48-5.80 171.48-5.31L171.48-5.31Q171.48-3.79 171.78-3.21Q172.09-2.64 172.83-2.64L172.83-2.64Q173.26-2.64 173.68-2.95Q174.10-3.26 174.59-4.04Q175.07-4.82 175.66-6.16Q176.25-7.50 177.03-9.55L177.03-9.55Z M192.08 0.23L192.08-0.45Q192.08-2.95 192.31-5.12L192.31-5.12Q191.71-4.02 191.14-3.32Q190.57-2.62 190.02-2.21Q189.46-1.80 188.89-1.64Q188.33-1.48 187.74-1.48L187.74-1.48Q187.27-1.48 186.68-1.63Q186.08-1.78 185.55-2.23Q185.03-2.68 184.67-3.51Q184.30-4.34 184.30-5.72L184.30-5.72Q184.30-7.17 184.66-8.47Q185.01-9.77 185.46-10.76L185.46-10.76Q185.96-11.93 186.63-12.93L186.63-12.93L187.35-12.68Q187.31-12.62 187.10-11.96Q186.88-11.31 186.64-10.32Q186.39-9.34 186.19-8.15Q185.98-6.97 185.98-5.88L185.98-5.88Q185.98-4.24 186.58-3.26Q187.18-2.29 188.27-2.29L188.27-2.29Q188.86-2.29 189.42-2.68Q189.99-3.07 190.54-3.76Q191.08-4.45 191.63-5.40Q192.18-6.35 192.70-7.48L192.70-7.48Q193.07-9.41 193.59-10.92Q194.11-12.42 194.68-13.48L194.68-13.48L195.40-13.28Q195.01-11.58 194.71-9.91Q194.42-8.24 194.22-6.66Q194.01-5.08 193.89-3.60Q193.78-2.13 193.72-0.84L193.72-0.84Q194.56-1.45 195.29-2.19Q196.02-2.93 196.73-3.95Q197.43-4.96 198.12-6.33Q198.82-7.70 199.56-9.55L199.56-9.55L200.32-9.36Q199.56-7.38 198.85-5.93Q198.13-4.47 197.36-3.37Q196.59-2.27 195.71-1.41Q194.83-0.55 193.72 0.23L193.72 0.23Q193.66 2.38 193.33 4.02Q193.00 5.66 192.51 6.88Q192.02 8.11 191.41 8.93Q190.81 9.75 190.20 10.25Q189.60 10.76 189.02 10.98Q188.45 11.19 188.04 11.19L188.04 11.19Q187.31 11.19 186.74 10.89Q186.16 10.59 185.75 10.10Q185.34 9.61 185.13 8.98Q184.91 8.36 184.91 7.71L184.91 7.71Q184.91 6.60 185.45 5.62Q185.98 4.63 186.88 3.75Q187.78 2.87 188.94 2.10Q190.11 1.33 191.36 0.64L191.36 0.64Q191.73 0.39 192.08 0.23L192.08 0.23ZM188.07 10.39L188.07 10.39Q188.70 10.39 189.35 9.89Q190.01 9.39 190.56 8.31Q191.12 7.23 191.52 5.52Q191.92 3.81 192.04 1.41L192.04 1.41Q191.98 1.45 191.91 1.47Q191.84 1.50 191.79 1.56L191.79 1.56Q190.79 2.19 189.81 2.94Q188.84 3.69 188.06 4.55Q187.29 5.41 186.80 6.36Q186.32 7.30 186.32 8.32L186.32 8.32Q186.32 8.67 186.44 9.04Q186.57 9.41 186.80 9.72Q187.04 10.02 187.36 10.21Q187.68 10.39 188.07 10.39Z M238.63-9.55L239.39-9.36Q238.59-7.19 237.93-5.72Q237.28-4.26 236.66-3.36Q236.05-2.46 235.44-2.07Q234.84-1.68 234.11-1.68L234.11-1.68Q233.23-1.68 232.61-2.29Q231.98-2.91 231.83-4.20L231.83-4.20Q231.20-2.85 230.21-2.00Q229.21-1.15 227.71-1.15L227.71-1.15Q226.91-1.15 226.17-1.45Q225.44-1.74 224.88-2.35Q224.31-2.97 223.97-3.91Q223.63-4.84 223.63-6.11L223.63-6.11Q223.63-7.40 223.95-8.54Q224.27-9.67 224.80-10.62Q225.32-11.56 226.02-12.30Q226.71-13.05 227.45-13.55Q228.20-14.06 228.94-14.34Q229.68-14.61 230.30-14.61L230.30-14.61Q230.85-14.61 231.36-14.47Q231.87-14.34 232.27-14.03Q232.67-13.73 232.91-13.22Q233.16-12.71 233.16-11.95L233.16-11.95Q233.16-11.05 232.81-10.39Q232.47-9.73 231.99-9.28Q231.52-8.83 231.02-8.55Q230.52-8.28 230.23-8.16L230.23-8.16L229.99-8.93Q230.05-8.93 230.43-9.08Q230.81-9.24 231.23-9.60Q231.65-9.96 232.00-10.53Q232.36-11.09 232.36-11.91L232.36-11.91Q232.36-12.85 231.83-13.35Q231.30-13.85 230.48-13.85L230.48-13.85Q229.86-13.85 229.02-13.40Q228.18-12.95 227.40-11.99Q226.63-11.04 226.10-9.57Q225.56-8.11 225.56-6.07L225.56-6.07Q225.56-4.06 226.27-3.01Q226.98-1.95 228.20-1.95L228.20-1.95Q228.80-1.95 229.36-2.29Q229.91-2.64 230.38-3.20Q230.85-3.77 231.22-4.52Q231.59-5.27 231.87-6.07L231.87-6.07Q231.87-6.70 232.01-7.55Q232.16-8.40 232.47-9.28L232.47-9.28L233.66-8.89Q233.57-8.63 233.47-8.22Q233.37-7.81 233.28-7.32Q233.20-6.84 233.14-6.32Q233.08-5.80 233.08-5.31L233.08-5.31Q233.08-3.79 233.38-3.21Q233.68-2.64 234.43-2.64L234.43-2.64Q234.86-2.64 235.28-2.95Q235.70-3.26 236.18-4.04Q236.67-4.82 237.26-6.16Q237.84-7.50 238.63-9.55L238.63-9.55Z M250.02 9.24L250.02 9.24Q248.89 9.24 248.02 8.91Q247.15 8.57 246.57 8.00Q245.98 7.42 245.69 6.63Q245.39 5.84 245.39 4.92L245.39 4.92Q245.39 4.10 245.69 3.38Q245.98 2.66 246.48 2.13Q246.98 1.60 247.63 1.30Q248.29 1.00 248.99 1.00L248.99 1.00Q249.67 1.00 250.33 1.38Q250.98 1.76 251.59 2.44L251.59 2.44L250.94 2.93Q250.49 2.36 249.97 2.08Q249.46 1.80 248.95 1.80L248.95 1.80Q248.38 1.80 247.88 2.04Q247.39 2.29 247.00 2.70Q246.61 3.11 246.38 3.65Q246.16 4.20 246.16 4.80L246.16 4.80Q246.16 5.59 246.39 6.25Q246.63 6.91 247.11 7.41Q247.60 7.91 248.32 8.19Q249.05 8.48 250.02 8.48L250.02 8.48Q251.37 8.48 252.31 7.84Q253.25 7.21 253.83 6.19Q254.42 5.18 254.68 3.90Q254.95 2.62 254.95 1.33L254.95 1.33L254.95-1.72L254.95-3.20Q254.11-2.05 252.85-1.33Q251.59-0.61 249.87-0.61L249.87-0.61Q249.13-0.61 248.38-0.85Q247.64-1.09 247.04-1.68Q246.45-2.27 246.08-3.26Q245.71-4.26 245.71-5.76L245.71-5.76Q245.71-6.80 245.99-7.84Q246.27-8.89 246.78-9.86Q247.29-10.84 247.99-11.70Q248.70-12.56 249.54-13.19Q250.38-13.83 251.32-14.19Q252.27-14.55 253.27-14.55L253.27-14.55Q253.89-14.55 254.39-14.36Q254.89-14.16 255.27-13.85Q255.65-13.54 255.93-13.15Q256.21-12.77 256.39-12.40L256.39-12.40Q256.66-13.18 256.89-13.70Q257.11-14.22 257.27-14.51L257.27-14.51L257.99-14.16Q257.93-14.04 257.69-13.36Q257.45-12.68 257.17-11.45Q256.90-10.21 256.68-8.46Q256.47-6.70 256.47-4.43L256.47-4.43Q256.47-3.93 256.48-3.32Q256.49-2.71 256.49-2.09Q256.49-1.46 256.50-0.86Q256.51-0.25 256.51 0.23L256.51 0.23Q256.51 2.93 255.92 4.68Q255.34 6.43 254.41 7.44Q253.48 8.46 252.32 8.85Q251.16 9.24 250.02 9.24ZM251.16-1.80L251.16-1.80Q251.82-1.80 252.40-2.01Q252.97-2.23 253.45-2.59Q253.93-2.95 254.33-3.45Q254.73-3.95 255.02-4.51L255.02-4.51Q255.14-6.82 255.44-8.51Q255.75-10.20 256.08-11.41L256.08-11.41Q255.94-11.88 255.71-12.30Q255.47-12.73 255.13-13.07Q254.79-13.40 254.33-13.60Q253.87-13.81 253.27-13.81L253.27-13.81Q252.52-13.81 251.53-13.33Q250.53-12.85 249.63-11.88Q248.73-10.92 248.12-9.47Q247.50-8.03 247.50-6.11L247.50-6.11Q247.50-5.18 247.72-4.38Q247.93-3.57 248.38-3.01Q248.83-2.44 249.53-2.12Q250.22-1.80 251.16-1.80Z M282.30-9.55L283.06-9.36Q282.26-7.19 281.61-5.72Q280.95-4.26 280.34-3.36Q279.72-2.46 279.12-2.07Q278.51-1.68 277.79-1.68L277.79-1.68Q276.91-1.68 276.29-2.29Q275.66-2.91 275.50-4.20L275.50-4.20Q274.88-2.85 273.88-2.00Q272.89-1.15 271.38-1.15L271.38-1.15Q270.58-1.15 269.85-1.45Q269.12-1.74 268.55-2.35Q267.98-2.97 267.64-3.91Q267.30-4.84 267.30-6.11L267.30-6.11Q267.30-7.40 267.62-8.54Q267.95-9.67 268.47-10.62Q269-11.56 269.69-12.30Q270.39-13.05 271.13-13.55Q271.87-14.06 272.61-14.34Q273.36-14.61 273.98-14.61L273.98-14.61Q274.53-14.61 275.04-14.47Q275.54-14.34 275.94-14.03Q276.34-13.73 276.59-13.22Q276.83-12.71 276.83-11.95L276.83-11.95Q276.83-11.05 276.49-10.39Q276.15-9.73 275.67-9.28Q275.19-8.83 274.69-8.55Q274.20-8.28 273.90-8.16L273.90-8.16L273.67-8.93Q273.73-8.93 274.11-9.08Q274.49-9.24 274.91-9.60Q275.33-9.96 275.68-10.53Q276.03-11.09 276.03-11.91L276.03-11.91Q276.03-12.85 275.50-13.35Q274.98-13.85 274.16-13.85L274.16-13.85Q273.53-13.85 272.69-13.40Q271.85-12.95 271.08-11.99Q270.31-11.04 269.77-9.57Q269.23-8.11 269.23-6.07L269.23-6.07Q269.23-4.06 269.95-3.01Q270.66-1.95 271.87-1.95L271.87-1.95Q272.48-1.95 273.03-2.29Q273.59-2.64 274.06-3.20Q274.53-3.77 274.90-4.52Q275.27-5.27 275.54-6.07L275.54-6.07Q275.54-6.70 275.69-7.55Q275.84-8.40 276.15-9.28L276.15-9.28L277.34-8.89Q277.24-8.63 277.14-8.22Q277.05-7.81 276.96-7.32Q276.87-6.84 276.81-6.32Q276.75-5.80 276.75-5.31L276.75-5.31Q276.75-3.79 277.06-3.21Q277.36-2.64 278.10-2.64L278.10-2.64Q278.53-2.64 278.95-2.95Q279.37-3.26 279.86-4.04Q280.35-4.82 280.93-6.16Q281.52-7.50 282.30-9.55L282.30-9.55Z M292.55-2.03L292.55-2.03Q291.32-2.03 290.51-3.03Q289.70-4.02 289.70-6.04L289.70-6.04Q289.70-7.36 290.23-9.42Q290.77-11.48 292.10-14.08L292.10-14.08L292.82-13.89Q292.70-13.38 292.44-12.50Q292.18-11.62 291.91-10.54Q291.65-9.45 291.45-8.27Q291.26-7.09 291.26-6.00L291.26-6.00Q291.26-5.08 291.39-4.50Q291.53-3.93 291.76-3.60Q291.98-3.28 292.28-3.16Q292.59-3.05 292.94-3.05L292.94-3.05Q293.50-3.05 294.01-3.40Q294.52-3.75 294.98-4.33Q295.44-4.90 295.84-5.62Q296.24-6.33 296.56-7.05Q296.88-7.77 297.14-8.43Q297.39-9.08 297.55-9.55L297.55-9.55L298.31-9.36Q298.09-8.77 297.81-8.00Q297.53-7.23 297.17-6.41Q296.80-5.59 296.36-4.80Q295.91-4.02 295.34-3.41Q294.77-2.79 294.08-2.41Q293.39-2.03 292.55-2.03ZM295.71-20.23L295.71-20.23Q295.71-19.55 295.18-19.18Q294.66-18.81 293.86-18.81L293.86-18.81Q293.45-18.81 293.08-18.94Q292.72-19.06 292.46-19.27Q292.20-19.47 292.05-19.76Q291.90-20.04 291.90-20.35L291.90-20.35Q291.90-21.02 292.42-21.43Q292.94-21.84 293.62-21.84L293.62-21.84Q294.11-21.84 294.50-21.69Q294.89-21.54 295.16-21.31Q295.44-21.07 295.57-20.79Q295.71-20.51 295.71-20.23ZM294.66-20.23L294.66-20.23Q294.66-20.43 294.49-20.60Q294.32-20.76 293.99-20.76L293.99-20.76Q293.39-20.76 293.39-20.31L293.39-20.31Q293.39-20.10 293.57-19.95Q293.76-19.80 294.07-19.80L294.07-19.80Q294.36-19.80 294.51-19.93Q294.66-20.06 294.66-20.23Z M306.31-9.36L305.55-9.55Q305.84-10.31 306.18-11.01Q306.52-11.70 306.91-12.23Q307.30-12.75 307.76-13.08Q308.22-13.40 308.79-13.40L308.79-13.40Q309.06-13.40 309.41-13.28Q309.77-13.16 310.09-12.81Q310.41-12.46 310.63-11.80Q310.84-11.13 310.84-10.04L310.84-10.04Q310.84-9.47 310.78-8.79Q310.72-8.11 310.66-7.44L310.66-7.44Q311.27-8.73 311.87-9.62Q312.46-10.51 313.04-11.04Q313.61-11.58 314.18-11.83Q314.75-12.07 315.31-12.07L315.31-12.07Q315.57-12.07 315.91-11.95Q316.25-11.84 316.55-11.54Q316.86-11.25 317.06-10.74Q317.27-10.23 317.27-9.43L317.27-9.43Q317.27-8.79 317.17-8.14Q317.07-7.50 316.95-6.89Q316.84-6.29 316.74-5.75Q316.64-5.21 316.64-4.80L316.64-4.80Q316.64-3.83 316.99-3.31Q317.34-2.79 318.07-2.79L318.07-2.79Q318.65-2.79 319.18-3.23Q319.71-3.67 320.17-4.36Q320.63-5.04 321.01-5.86Q321.39-6.68 321.67-7.43Q321.95-8.18 322.15-8.76Q322.34-9.34 322.42-9.55L322.42-9.55L323.18-9.36Q322.91-8.67 322.61-7.84Q322.30-7.01 321.93-6.17Q321.56-5.33 321.13-4.54Q320.70-3.75 320.18-3.14Q319.65-2.54 319.03-2.17Q318.42-1.80 317.68-1.80L317.68-1.80Q317.05-1.80 316.59-2.04Q316.13-2.29 315.82-2.70Q315.51-3.11 315.35-3.67Q315.20-4.24 315.20-4.88L315.20-4.88Q315.20-5.61 315.32-6.37Q315.45-7.13 315.60-7.83Q315.74-8.54 315.87-9.13Q316.00-9.73 316.00-10.12L316.00-10.12Q316.00-10.72 315.76-11.03Q315.53-11.33 315.12-11.33L315.12-11.33Q314.55-11.33 314.01-10.92Q313.48-10.51 312.98-9.82Q312.48-9.14 312.03-8.26Q311.58-7.38 311.20-6.46Q310.82-5.53 310.50-4.61Q310.18-3.69 309.94-2.95Q309.71-2.21 309.54-1.69Q309.38-1.17 309.32-1.04L309.32-1.04L308.18-1.23Q308.42-2.38 308.61-3.66Q308.81-4.94 308.96-6.18Q309.10-7.42 309.19-8.55Q309.28-9.69 309.28-10.57L309.28-10.57Q309.28-11.76 309.12-12.18Q308.96-12.60 308.55-12.60L308.55-12.60Q308.20-12.60 307.89-12.33Q307.58-12.07 307.31-11.63Q307.05-11.19 306.80-10.61Q306.54-10.02 306.31-9.36L306.31-9.36Z"></path></g> </svg> </g><g transform="rotate(0 357.3966 411.1221)" opacity="1"> <svg viewBox="3 -38.28 267.96 51.96" preserveAspectRatio="none" version="1.1" y="411.1221" x="357.3966" height="65" width="335.2069"> <g class="aD6z1nYkhcolor8bc17515-8f0c-481b-bff5-b01961935c53" transform="matrix(1 0 0 1 0 0)"><path d="M10.52-30.14Q10.84-29.48 10.90-28.92Q10.96-28.36 10.96-26.88Q10.96-25.40 9.96-18.56L9.96-18.56L9.60-16.24Q15-20.68 18.72-24.86Q22.44-29.04 23.96-31.96L23.96-31.96Q25.28-29.64 25.28-27.42Q25.28-25.20 23.02-22.88Q20.76-20.56 16.20-17.20L16.20-17.20Q19-8.36 22.48-3.52L22.48-3.52Q23.96-1.48 26.24 0.92L26.24 0.92Q24.76 1.32 23.28 1.32Q21.80 1.32 20.24 0.40Q18.68-0.52 17.54-1.84Q16.40-3.16 15.20-5.36L15.20-5.36Q13.48-8.60 11.48-13.88L11.48-13.88Q10.36-13.04 9.04-12.16L9.04-12.16Q8.32-6.20 8.32-3.14Q8.32-0.08 8.88 1.24L8.88 1.24Q5.48 0.36 4.24-1.10Q3-2.56 3-5.16L3-5.16Q3-6.68 3.84-12.88L3.84-12.88Q5.32-23.16 5.32-28.80L5.32-28.80Q5.32-30 5.16-32.08L5.16-32.08Q8.20-31.92 9.60-31.12L9.60-31.12Q10.20-30.80 10.52-30.14Z M39.12-19.88Q39.12-19.28 38.14-13.58Q37.16-7.88 37.14-4.18Q37.12-0.48 37.60 0.60L37.60 0.60Q34.48-0.20 33.40-1.82Q32.32-3.44 32.32-6.56L32.32-6.56Q32.32-8.24 32.96-12.64Q33.60-17.04 33.60-19.48Q33.60-21.92 33.36-23.24L33.36-23.24Q34.24-23.32 35-23.32L35-23.32Q37.32-23.32 38.22-22.54Q39.12-21.76 39.12-19.88L39.12-19.88ZM39.72-26.84L39.72-26.84Q38.60-26.68 37.76-26.68L37.76-26.68Q33.64-26.68 33.64-29.56L33.64-29.56Q33.64-30.60 34.24-32.40L34.24-32.40Q35.36-32.56 36.20-32.56L36.20-32.56Q40.32-32.56 40.32-29.68L40.32-29.68Q40.32-28.64 39.72-26.84Z M54.72-18.80L54.72-18.80Q54.52-17.36 53.88-13.80L53.88-13.80Q52.52-6.24 52.52-2.60Q52.52 1.04 53.08 2.28L53.08 2.28Q50 1.48 48.84-0.18Q47.68-1.84 47.68-4.88L47.68-4.88Q47.68-7.56 48.52-12.22Q49.36-16.88 49.60-18.52L49.60-18.52Q47.52-18.16 45.16-17.12L45.16-17.12Q45.08-18 45.08-18.44L45.08-18.44Q45.08-20.56 46.36-21.34Q47.64-22.12 50.04-22.16L50.04-22.16Q50.32-25.16 50.32-26.48Q50.32-27.80 50.30-28.68Q50.28-29.56 50.28-30L50.28-30Q52.92-29.72 54.12-28.42Q55.32-27.12 55.32-24.72L55.32-24.72Q55.32-23.76 55.12-22.04L55.12-22.04Q58.48-22.12 60.04-23.36L60.04-23.36Q60.12-22.56 60.12-22.16L60.12-22.16Q60.12-20.24 59.44-19.50Q58.76-18.76 57.16-18.76Q55.56-18.76 54.72-18.80Z M72.16-18.80L72.16-18.80Q71.96-17.36 71.32-13.80L71.32-13.80Q69.96-6.24 69.96-2.60Q69.96 1.04 70.52 2.28L70.52 2.28Q67.44 1.48 66.28-0.18Q65.12-1.84 65.12-4.88L65.12-4.88Q65.12-7.56 65.96-12.22Q66.80-16.88 67.04-18.52L67.04-18.52Q64.96-18.16 62.60-17.12L62.60-17.12Q62.52-18 62.52-18.44L62.52-18.44Q62.52-20.56 63.80-21.34Q65.08-22.12 67.48-22.16L67.48-22.16Q67.76-25.16 67.76-26.48Q67.76-27.80 67.74-28.68Q67.72-29.56 67.72-30L67.72-30Q70.36-29.72 71.56-28.42Q72.76-27.12 72.76-24.72L72.76-24.72Q72.76-23.76 72.56-22.04L72.56-22.04Q75.92-22.12 77.48-23.36L77.48-23.36Q77.56-22.56 77.56-22.16L77.56-22.16Q77.56-20.24 76.88-19.50Q76.20-18.76 74.60-18.76Q73-18.76 72.16-18.80Z M98.80-20.32L98.80-20.32Q98.80-18.92 97.60-16.54Q96.40-14.16 94.68-11.28Q92.96-8.40 91.24-5.14Q89.52-1.88 88.32 2.22Q87.12 6.32 87.12 10.24L87.12 10.24Q87.12 12.04 87.40 13.68L87.40 13.68Q84.16 13.08 83 11.90Q81.84 10.72 81.84 9.12L81.84 9.12Q81.84 6.92 85.04 0.44L85.04 0.44Q84.44-2.04 83.56-7.34Q82.68-12.64 81.78-16.56Q80.88-20.48 79.72-22.40L79.72-22.40Q81.92-23.44 83.24-23.44Q84.56-23.44 85.24-22.84Q85.92-22.24 86.38-20.46Q86.84-18.68 87.04-17.52L87.04-17.52Q87.60-13.68 87.60-13.24Q87.60-12.80 87.92-9.66Q88.24-6.52 88.40-5.52L88.40-5.52Q95.52-19.32 95.52-23.96L95.52-23.96Q98.80-22.28 98.80-20.32Z M132.76-13.36L132.76-13.36L128.92-13.40Q127.28-13.40 126.40-13.36L126.40-13.36Q125.76-7.76 125.76-4.28Q125.76-0.80 126 0.60L126 0.60Q124.72 0.68 124.32 0.68L124.32 0.68Q122.04 0.68 121.04-0.12Q120.04-0.92 120.04-2.94Q120.04-4.96 121.16-12.64L121.16-12.64Q119.88-12.24 119.28-11.96L119.28-11.96Q119.20-12.84 119.20-13.28L119.20-13.28Q119.20-16.04 121.72-16.72L121.72-16.72Q122.48-22.20 122.64-26.20L122.64-26.20Q120.60-26.20 120.06-26.76Q119.52-27.32 119.52-29.24L119.52-29.24Q119.68-31.04 119.84-31.60L119.84-31.60Q124.36-31 129.76-31Q135.16-31 140.20-31.96L140.20-31.96Q139.64-27.76 135.08-26.92L135.08-26.92Q132.60-26.44 128-26.28L128-26.28Q127.96-25.76 126.84-16.96L126.84-16.96Q129.16-16.88 130-16.88L130-16.88Q133.80-16.88 135.40-18.20L135.40-18.20Q135.48-17.40 135.48-17L135.48-17Q135.48-13.36 132.76-13.36Z M147.88-13L147.88-13Q149.32-18.20 151.34-20.66Q153.36-23.12 155.10-23.12Q156.84-23.12 157.72-21.82Q158.60-20.52 158.60-18.46Q158.60-16.40 157.38-14.68Q156.16-12.96 154.04-12.96L154.04-12.96Q153.48-12.96 152.72-13.28L152.72-13.28Q153.96-14.84 153.96-17.04L153.96-17.04Q153.96-18.32 152.92-18.32L152.92-18.32Q152.16-18.32 151.28-17.26Q150.40-16.20 149.60-14.34Q148.80-12.48 148.26-9.58Q147.72-6.68 147.72-3.40L147.72-3.40Q147.72-3 147.92 0L147.92 0Q146.64 0.08 146.28 0.08L146.28 0.08Q144.00 0.08 143.00-0.72Q142.00-1.52 142.00-3.36L142.00-3.36Q142.00-4.16 142.84-9.52Q143.68-14.88 143.68-18.06Q143.68-21.24 143.00-23.92L143.00-23.92Q145.92-23 147.08-21.30Q148.24-19.60 148.24-17.34Q148.24-15.08 147.88-13Z M170.00-19.88Q170.00-19.28 169.02-13.58Q168.04-7.88 168.02-4.18Q168.00-0.48 168.48 0.60L168.48 0.60Q165.36-0.20 164.28-1.82Q163.20-3.44 163.20-6.56L163.20-6.56Q163.20-8.24 163.84-12.64Q164.48-17.04 164.48-19.48Q164.48-21.92 164.24-23.24L164.24-23.24Q165.12-23.32 165.88-23.32L165.88-23.32Q168.20-23.32 169.10-22.54Q170.00-21.76 170.00-19.88L170.00-19.88ZM170.60-26.84L170.60-26.84Q169.48-26.68 168.64-26.68L168.64-26.68Q164.52-26.68 164.52-29.56L164.52-29.56Q164.52-30.60 165.12-32.40L165.12-32.40Q166.24-32.56 167.08-32.56L167.08-32.56Q171.20-32.56 171.20-29.68L171.20-29.68Q171.20-28.64 170.60-26.84Z M186.20-9.84L186.20-9.84Q184.28-9.84 182.44-10.28L182.44-10.28Q182.40-9.88 182.40-9.04L182.40-9.04Q182.40-5.72 183.64-4.04Q184.88-2.36 186.60-2.36Q188.32-2.36 189.88-3.40Q191.44-4.44 192.60-6.28L192.60-6.28Q194.04-5.96 194.04-4.80L194.04-4.80Q190.52 0.60 184.96 0.60L184.96 0.60Q181.60 0.60 179.08-1.98Q176.56-4.56 176.56-9.16L176.56-9.16Q176.56-12.60 177.88-15.70Q179.20-18.80 182.08-20.94Q184.96-23.08 188.46-23.08Q191.96-23.08 193.60-21.48Q195.24-19.88 195.24-17.28L195.24-17.28Q195.24-13.52 192.62-11.68Q190.00-9.84 186.20-9.84ZM187.88-20.60L187.88-20.60Q185.84-20.60 184.44-18.08Q183.04-15.56 182.60-11.96L182.60-11.96L183.20-11.96Q186.68-11.96 188.34-13.76Q190.00-15.56 190.00-18.08L190.00-18.08Q190.00-19.12 189.46-19.86Q188.92-20.60 187.88-20.60Z M216.88-23.08Q219.24-23.08 220.26-21.62Q221.28-20.16 221.28-17.66Q221.28-15.16 220.50-10.64Q219.72-6.12 219.72-4.06Q219.72-2 220.24-1.06Q220.76-0.12 222.00 0.56L222.00 0.56Q221.48 0.60 220.52 0.60L220.52 0.60Q217.16 0.60 215.74-0.44Q214.32-1.48 214.32-4.08L214.32-4.08Q214.32-5.56 215.12-9.86Q215.92-14.16 215.92-16.28L215.92-16.28Q215.92-18.92 214.32-18.92L214.32-18.92Q213.40-18.92 212.24-17.84Q211.08-16.76 210.00-14.90Q208.92-13.04 208.20-10.12Q207.48-7.20 207.48-4.30Q207.48-1.40 207.72 0L207.72 0Q206.44 0.08 206.04 0.08L206.04 0.08Q203.76 0.08 202.76-0.72Q201.76-1.52 201.76-3.36L201.76-3.36Q201.76-4.16 202.60-9.52Q203.44-14.88 203.44-18.06Q203.44-21.24 202.76-23.92L202.76-23.92Q205.68-23 206.84-21.30Q208.00-19.60 208.00-17.42Q208.00-15.24 207.52-12.36L207.52-12.36Q208.84-16.84 211.68-19.96Q214.52-23.08 216.88-23.08Z M233.36-8.08L233.36-8.08Q233.36-3.32 236.24-3.32L236.24-3.32Q237.76-3.32 239.20-4.96Q240.64-6.60 241.54-9.36Q242.44-12.12 243.10-15.26Q243.76-18.40 244.08-21.92L244.08-21.92Q244.64-28.72 244.64-32.54Q244.64-36.36 244.32-38.28L244.32-38.28Q247.20-37.64 248.36-35.56Q249.52-33.48 249.52-30.32Q249.52-27.16 248.18-18.56Q246.84-9.96 246.84-6Q246.84-2.04 247.20 0.72L247.20 0.72Q244.36-0.04 243.30-2.02Q242.24-4 242.24-7L242.24-7Q241.00-3.56 238.52-1.56Q236.04 0.44 233.40 0.44Q230.76 0.44 229.10-1.58Q227.44-3.60 227.44-7.52L227.44-7.52Q227.44-13.72 230.84-18.18Q234.24-22.64 238.88-22.64L238.88-22.64Q240.20-22.64 243.04-22L243.04-22Q240.56-21.36 238.62-19.78Q236.68-18.20 235.60-16.16L235.60-16.16Q233.36-12.12 233.36-8.08Z M264.00-20.72Q262.88-20.72 262.00-19.98Q261.12-19.24 261.12-17.88Q261.12-16.52 262.06-15.32Q263.00-14.12 264.36-13.22Q265.72-12.32 267.10-11.38Q268.48-10.44 269.52-9.06Q270.56-7.68 270.68-6L270.68-6Q270.68-3.12 268.20-1.16Q265.72 0.80 262.04 0.80Q258.36 0.80 256.26-0.68Q254.16-2.16 254.16-4.08Q254.16-6 255.34-7.18Q256.52-8.36 258.28-8.36L258.28-8.36Q259.20-8.36 260.00-8.04L260.00-8.04Q258.72-6.68 258.72-5.16Q258.72-3.64 259.56-2.72Q260.40-1.80 261.84-1.80Q263.28-1.80 264.26-2.54Q265.24-3.28 265.24-4.46Q265.24-5.64 264.56-6.56Q263.88-7.48 262.86-8.18Q261.84-8.88 260.64-9.76Q259.44-10.64 258.42-11.54Q257.40-12.44 256.72-13.82Q256.04-15.20 256.04-16.84L256.04-16.84Q256.04-19.68 258.38-21.50Q260.72-23.32 264.22-23.32Q267.72-23.32 269.34-21.96Q270.96-20.60 270.96-18.78Q270.96-16.96 269.82-15.68Q268.68-14.40 266.88-14.40L266.88-14.40Q266.00-14.40 264.88-14.76L264.88-14.76Q265.76-15.52 266.24-16.50Q266.72-17.48 266.72-18.44Q266.72-19.40 265.92-20.06Q265.12-20.72 264.00-20.72Z"></path></g> </svg> </g><g transform="rotate(0 430.3348 209.7257)" opacity="1"> <svg viewBox="5.4375 6.125 88.375 88.6875" preserveAspectRatio="none" version="1.1" y="209.7257" x="430.3348" height="190" width="189.3305"> <g class="aLgOaV3zRcolors-08bc17515-8f0c-481b-bff5-b01961935c53" transform="matrix(1 0 0 1 0 0)"><g transform="translate(4.0632653,5.6214285)"><g display="none" style=""><g display="inline" style="opacity:0.47000002;display:inline"><g><path d="m 68.889,43.594 c 0.278,-1.092 0.278,1.092 0,0 l 0,0 z" style=""></path><path d="m 62.411,71.75 c 0.237,0 0.479,0 0.717,0 -0.005,0.362 -0.667,0.357 -0.717,0 z" style=""></path><path d="m 62.169,35.313 c 0.241,0 0.301,0.483 0,0.551 0,-0.184 0,-0.368 0,-0.551 z" style=""></path><path d="m 59.291,71.478 c 0.917,-1.512 1.359,1.548 2.879,1.102 -0.146,0.751 -0.662,1.081 -1.442,1.107 -0.293,-0.956 -1.055,-1.365 -1.437,-2.209 z" style=""></path><path d="m 50.891,62.089 c 3.016,1.773 5.438,4.234 7.437,7.179 -2.391,-1.391 -5.567,-4.272 -7.437,-7.179 z" style=""></path><path d="m 63.127,71.75 c 5.885,-2.986 11.52,-6.256 16.082,-10.764 0.579,-0.115 0.52,0.504 1.199,0.273 -0.022,4.597 1.022,9.493 0,13.808 C 68.985,79.318 58.825,86.492 47.771,90.25 47.237,88.743 47.46,86.371 46.329,85.558 47.939,78.704 46.858,71.414 47.05,63.197 45.581,70.04 46.175,79.755 45.371,84.452 46.831,85.874 45.937,89.5 44.65,90.251 32.309,84.66 19.854,79.202 8.412,72.579 c 0.206,-4.177 0.37,-8.407 1.2,-11.871 0.771,0.063 1.013,-0.488 1.916,-0.272 C 8.845,57.361 3.019,57.896 0.25,54.915 1.842,50.297 7.951,48.502 10.57,44.146 c 5.694,-0.068 10.338,3.359 14.398,6.072 5.931,3.028 13.23,4.478 18.24,8.561 -2.993,4.377 -6.419,8.26 -9.841,12.149 -6.273,-4.283 -13.422,-7.568 -21.119,-10.219 -0.004,-0.268 -0.292,-0.21 -0.479,-0.272 0.009,0.268 0.292,0.215 0.479,0.272 5.99,5.442 14.604,7.867 21.84,11.871 3.769,-5.048 8.217,-9.32 11.762,-14.632 -0.502,1.701 1.697,1.911 0.479,2.761 0.188,0.063 0.475,0.011 0.479,0.278 0.898,0.473 1.45,-1.821 1.2,-3.59 6.551,-4.424 13.859,-7.982 19.918,-12.973 -0.894,-0.924 -1.336,1.023 -2.637,0.551 -0.857,-1.501 -0.434,-4.472 -1.679,-5.521 -0.726,1.664 0.319,3.668 0,5.793 -6.241,3.769 -11.757,9.557 -18.724,11.599 -6.989,-3.831 -14.439,-7.127 -21.839,-10.491 -0.771,-6.707 4.699,-8.565 6.72,-12.973 -0.639,-0.425 -1.182,-0.11 -2.4,-0.278 -1.228,3.154 -2.938,7.022 -6,7.18 3.956,-8.234 -8.176,-19.355 -9.841,-7.458 -0.278,0.047 -0.68,-0.047 -0.716,0.278 -4.439,-0.037 -3.987,-5.048 -2.883,-8.833 4.822,-8.801 19.144,-4.498 19.203,6.345 0.187,0.063 0.47,0.01 0.479,0.278 1.684,0.095 1.848,-1.553 3.358,-1.658 C 28.339,25.085 29.47,16.609 28.567,10.464 26.98,8.784 25.164,4.051 27.13,1.631 c 5.644,2.157 8.157,7.914 16.319,7.179 3.841,-2.115 7.099,-4.902 9.84,-8.281 0.183,-0.063 0.471,-0.011 0.479,-0.278 0.917,0.142 1.091,1.139 1.921,1.38 -0.425,1.427 1.004,3.285 0.237,3.312 0.611,2.519 0.816,6.025 0.479,8.56 -1.282,9.683 -0.142,17.256 5.763,21.811 0,0.184 0,0.368 0,0.551 0.301,-0.068 0.241,-0.551 0,-0.551 0,-0.278 0,-0.556 0,-0.829 4.703,-0.031 7.942,3.154 12.72,3.863 -0.676,2.267 -3.408,2.157 -4.079,4.419 2.076,-0.189 3.946,-3.002 6.957,-3.039 4.139,4.54 9.007,8.229 12.482,13.53 -8.146,7.188 -20.213,9.875 -27.121,18.492 -0.237,0 -0.479,0 -0.717,0 0.051,0.357 0.713,0.362 0.717,0 z m -0.958,0.829 c -1.52,0.446 -1.962,-2.613 -2.879,-1.102 0.383,0.845 1.145,1.254 1.437,2.209 0.78,-0.026 1.296,-0.356 1.442,-1.107 z m -3.841,-3.311 c -1.998,-2.944 -4.421,-5.405 -7.437,-7.179 1.87,2.907 5.046,5.788 7.437,7.179 z M 68.889,43.594 c 0.278,1.092 0.278,-1.092 0,0 l 0,0 z"></path><path d="m 20.89,38.073 c 0.903,2.949 -0.237,3.91 -0.479,6.623 -2.186,-0.798 -4.777,-1.128 -6.72,-2.209 1.851,-2.099 3.508,-4.429 7.199,-4.414 z"></path><path d="m 11.77,60.436 c 0.187,0.063 0.475,0.005 0.479,0.272 -0.187,-0.058 -0.47,-0.005 -0.479,-0.272 z" style=""></path></g></g></g><g display="none" style=""><polygon display="inline" points="13.083,73.584 45.25,89.751 45.25,58.751 13.083,43.25" style=""></polygon><polygon display="inline" points="80.25,40.917 45.583,28.084 13.916,42.084 46.417,58.584 46.417,89.751 80.25,75.251" style=""></polygon></g><g><g><path transform="translate(-4.0632653,-5.6214285)" d="M 57.46875 6.125 C 57.46875 6.125 51.68725 14.69425 46.15625 14.53125 C 41.27625 15.10125 31.75 7.34375 31.75 7.34375 C 31.75 7.34375 28.52975 9.9015 32.96875 16.0625 C 35.08275 18.9975 29.556 27.55225 35.25 34.15625 C 35.884 36.32225 34.95325 38.1575 33.53125 39.9375 C 29.27825 29.5165 25.1185 27.68125 22.3125 26.90625 C 18.7885 25.93325 15.1355 27.13325 13.1875 29.03125 C 9.9065 32.22725 9.25275 41.00475 14.34375 39.84375 C 15.86175 39.24475 14.62175 35.5215 15.71875 33.6875 C 17.04375 31.4735 18.79575 31.391 22.21875 32.625 C 26.69775 34.241 29.15325 43.0875 28.65625 45.8125 C 27.73325 47.3345 27.20425 49.02075 27.53125 50.96875 C 28.83325 52.11075 49.90625 61.34375 49.90625 61.34375 C 49.90625 61.34375 64.20025 54.615 68.53125 51.375 C 68.77425 46.239 67.8745 45.352 61.4375 34.75 C 59.1605 31 59.474 21.7745 60.125 18.1875 C 61.507 8.5665 57.46875 6.125 57.46875 6.125 z M 64.90625 38.875 C 64.90625 38.875 67.1785 42.118 67.9375 44 C 69.4725 46.401 69.53125 50.90625 69.53125 50.90625 L 81.4375 44.875 L 64.90625 38.875 z M 27.5 42.90625 L 18.90625 46.96875 C 18.90625 46.96875 25.55625 50.2805 26.53125 50.6875 C 26.01525 48.7095 27.10575 47.1985 27.59375 45.8125 C 28.08275 44.4265 27.5 42.90625 27.5 42.90625 z M 82.375 45.21875 L 50.875 61.96875 L 64.9375 75.34375 L 93.8125 59.1875 L 82.375 45.21875 z M 17.9375 47.5625 L 5.4375 60.75 L 36.6875 77.53125 L 49.15625 62.125 L 17.9375 47.5625 z M 50.3125 62.9375 L 50.8125 94.78125 L 83.65625 79.375 L 83.875 65.71875 L 64.84375 76.4375 L 50.3125 62.9375 z M 49.625 63.09375 L 36.96875 78.84375 L 13.4375 66.28125 L 13.375 77.5625 L 49.625 94.8125 L 49.625 63.09375 z"></path></g></g></g></g> </svg> </g></svg>